<?xml version="1.0" encoding="utf-8"?>
<svg viewBox="0 0 300 300" xmlns="http://www.w3.org/2000/svg">
  <g transform="matrix(0.207515, 0, 0, -0.229166, -161.011599, 530.814583)" fill="#000000" stroke="none" style="">
    <path d="M1395 2272 c-33 -7 -85 -50 -193 -160 -100 -102 -103 -107 -90 -130 16 -31 76 -71 121 -82 35 -7 35 -7 41 32 4 22 15 57 26 79 l20 39 63 -46 c34 -25 63 -47 65 -48 1 -2 -98 -91 -220 -198 -257 -226 -273 -241 -265 -262 9 -24 74 -21 81 2 9 27 267 277 366 355 l84 66 36 -26 c147 -110 399 -343 423 -392 7 -14 21 -27 32 -29 28 -4 58 20 50 40 -4 9 -113 109 -243 224 -130 114 -238 210 -240 214 -2 4 25 28 60 54 63 47 63 47 80 26 9 -11 22 -45 29 -76 12 -54 13 -55 43 -48 47 10 81 30 110 64 26 31 34 60 17 60 -4 0 -48 41 -97 91 -111 113 -153 147 -193 155 l-31 7 40 -41 c45 -44 50 -66 20 -82 -15 -8 -19 -17 -14 -34 4 -19 -5 -32 -52 -75 -32 -28 -62 -51 -67 -51 -4 0 -33 21 -63 48 -46 39 -55 51 -50 73 3 18 -1 29 -15 37 -28 18 -24 37 17 77 39 39 40 44 9 37z"/>
    <path d="M1370 1675 l0 -55 50 0 50 0 0 55 0 55 -50 0 -50 0 0 -55z"/>
    <path d="M1520 1676 l0 -56 51 0 50 0 -3 53 -3 52 -47 3 -48 3 0 -55z"/>
    <path d="M1370 1535 l0 -55 50 0 50 0 0 55 0 55 -50 0 -50 0 0 -55z"/>
    <path d="M1520 1536 l0 -56 51 0 50 0 -3 53 -3 52 -47 3 -48 3 0 -55z"/>
    <path d="M1300 1145 c0 -97 1 -105 19 -105 14 0 21 8 23 27 4 38 23 39 44 4 10 -17 27 -31 37 -31 18 0 18 2 5 23 -43 66 -43 63 -19 93 32 41 7 44 -35 3 l-34 -33 0 62 c0 55 -2 62 -20 62 -19 0 -20 -7 -20 -105z"/>
    <path d="M800 1140 l0 -100 70 0 c54 0 70 3 70 14 0 11 -15 16 -52 18 -49 3 -53 5 -56 31 -3 26 -2 27 42 27 34 0 46 4 46 15 0 11 -12 15 -45 15 -41 0 -45 2 -45 25 0 23 3 25 50 25 38 0 50 4 50 15 0 12 -14 15 -65 15 l-65 0 0 -100z"/>
    <path d="M980 1170 c-12 -12 -20 -33 -20 -55 0 -22 8 -43 20 -55 27 -27 81 -26 106 1 l19 22 -44 -7 c-49 -8 -71 4 -71 39 0 33 24 48 65 41 36 -7 44 1 23 22 -19 19 -76 14 -98 -8z"/>
    <path d="M1142 1167 c-46 -49 -12 -127 56 -127 43 0 72 30 72 75 0 69 -81 102 -128 52z m86 -19 c30 -30 0 -85 -41 -74 -30 7 -43 37 -27 66 12 22 49 27 68 8z"/>
    <path d="M1470 1180 c-16 -11 -12 -12 40 -14 24 -1 36 -6 38 -18 3 -14 -4 -18 -31 -18 -21 0 -41 -7 -51 -19 -37 -41 15 -87 69 -63 15 7 26 8 30 2 4 -6 12 -10 20 -10 19 0 8 108 -13 133 -17 19 -77 23 -102 7z m80 -89 c0 -19 -25 -31 -47 -24 -7 3 -13 13 -13 24 0 14 7 19 30 19 23 0 30 -5 30 -19z"/>
    <path d="M1630 1115 c0 -60 3 -75 15 -75 11 0 15 12 15 48 0 50 12 72 41 72 21 0 29 -20 29 -76 0 -32 4 -44 15 -44 11 0 15 12 15 48 0 50 12 72 41 72 21 0 29 -20 29 -76 0 -33 4 -44 15 -44 13 0 15 12 13 66 -4 80 -18 96 -70 76 -21 -8 -36 -8 -42 -2 -14 14 -59 13 -74 -2 -9 -9 -12 -9 -12 0 0 7 -7 12 -15 12 -12 0 -15 -15 -15 -75z"/>
    <path d="M1910 1170 c-12 -12 -20 -33 -20 -55 0 -45 29 -75 73 -75 21 0 41 8 52 20 20 22 10 25 -28 11 -18 -7 -30 -5 -46 5 -32 23 -17 34 45 34 46 0 54 3 54 18 0 52 -91 81 -130 42z m80 -15 c18 -21 9 -27 -36 -23 -36 3 -37 4 -20 21 21 21 40 22 56 2z"/>
    <path d="M2070 1115 c0 -59 3 -75 14 -75 11 0 16 15 18 51 3 55 21 78 52 66 12 -5 16 -20 16 -62 0 -43 3 -55 15 -55 13 0 15 13 13 73 -3 70 -4 72 -30 75 -15 2 -36 -2 -48 -8 -13 -7 -20 -7 -20 0 0 5 -7 10 -15 10 -12 0 -15 -15 -15 -75z"/>
  </g>
</svg>